<svg width="24" height="20" viewBox="0 0 24 20" fill="none" xmlns="http://www.w3.org/2000/svg">
<path d="M14.272 13.1646C14.272 16.2658 11.968 18.038 8.832 18.038C5.024 18.038 2.464 15.8228 0 9.11392L2.272 8.1962C4 13.1329 5.824 15.7278 8.608 15.7278C10.496 15.7278 11.744 14.6835 11.744 12.8797C11.744 11.4241 10.752 10.2848 9.504 9.39873C8.704 9.62025 7.744 9.77848 6.656 9.87342L6.144 7.62658C10.144 7.12025 11.2 6.26582 11.2 4.52532C11.2 3.13291 10.272 2.24683 8.544 2.24683C7.104 2.24683 5.728 2.68987 4.352 3.51266L3.52 1.29747C4.992 0.474683 6.656 0 8.64 0C12.288 0 13.76 2.12025 13.76 4.55696C13.76 6.20253 13.152 7.53165 11.712 8.44937L11.776 8.51266C12.8 8.76582 13.92 8.86076 14.912 8.86076C15.904 8.86076 16.96 8.76582 18.08 8.48101V2.56329H15.744V0.316455H24V2.56329H20.672V20H18.08V10.8228C17.216 11.0443 16.32 11.1076 15.424 11.1076C14.912 11.1076 14.304 11.0759 13.696 10.981C14.08 11.6456 14.272 12.4051 14.272 13.1646Z" fill="#EFEFEF"/>
</svg>
